<mxfile host="Electron" modified="2023-05-09T18:24:23.341Z" agent="Mozilla/5.0 (X11; Linux x86_64) AppleWebKit/537.36 (KHTML, like Gecko) draw.io/21.1.2 Chrome/106.0.5249.199 Electron/21.4.3 Safari/537.36" etag="oCd3J8pjCi3CWa-e-2oE" version="21.1.2" type="device">
  <diagram name="Page-1" id="hptpLZo5cS2NLCInuIkq">
    <mxGraphModel dx="986" dy="824" grid="1" gridSize="10" guides="1" tooltips="1" connect="1" arrows="1" fold="1" page="1" pageScale="1" pageWidth="850" pageHeight="1100" math="0" shadow="0">
      <root>
        <mxCell id="0" />
        <mxCell id="1" parent="0" />
        <mxCell id="U-aAV0uO-yYcBymXb_cQ-6" style="rounded=0;orthogonalLoop=1;jettySize=auto;html=1;endArrow=none;endFill=0;strokeWidth=3;" parent="1" source="U-aAV0uO-yYcBymXb_cQ-1" target="U-aAV0uO-yYcBymXb_cQ-3" edge="1">
          <mxGeometry relative="1" as="geometry" />
        </mxCell>
        <mxCell id="U-aAV0uO-yYcBymXb_cQ-1" value="" style="ellipse;whiteSpace=wrap;html=1;aspect=fixed;" parent="1" vertex="1">
          <mxGeometry x="395" y="80" width="60" height="60" as="geometry" />
        </mxCell>
        <mxCell id="U-aAV0uO-yYcBymXb_cQ-2" value="&lt;font style=&quot;font-size: 20px;&quot;&gt;C&lt;/font&gt;" style="ellipse;whiteSpace=wrap;html=1;aspect=fixed;fillColor=#CCCCCC;" parent="1" vertex="1">
          <mxGeometry x="480" y="170" width="60" height="60" as="geometry" />
        </mxCell>
        <mxCell id="U-aAV0uO-yYcBymXb_cQ-3" value="" style="ellipse;whiteSpace=wrap;html=1;aspect=fixed;" parent="1" vertex="1">
          <mxGeometry x="310" y="170" width="60" height="60" as="geometry" />
        </mxCell>
        <mxCell id="U-aAV0uO-yYcBymXb_cQ-4" value="&lt;font style=&quot;font-size: 20px;&quot;&gt;A&lt;/font&gt;" style="ellipse;whiteSpace=wrap;html=1;aspect=fixed;" parent="1" vertex="1">
          <mxGeometry x="250" y="270" width="60" height="60" as="geometry" />
        </mxCell>
        <mxCell id="U-aAV0uO-yYcBymXb_cQ-5" value="&lt;font style=&quot;font-size: 20px;&quot;&gt;B&lt;/font&gt;" style="ellipse;whiteSpace=wrap;html=1;aspect=fixed;fillColor=#CCCCCC;" parent="1" vertex="1">
          <mxGeometry x="360" y="270" width="60" height="60" as="geometry" />
        </mxCell>
        <mxCell id="U-aAV0uO-yYcBymXb_cQ-7" style="rounded=0;orthogonalLoop=1;jettySize=auto;html=1;endArrow=none;endFill=0;strokeWidth=3;" parent="1" source="U-aAV0uO-yYcBymXb_cQ-2" target="U-aAV0uO-yYcBymXb_cQ-1" edge="1">
          <mxGeometry relative="1" as="geometry">
            <mxPoint x="670" y="80" as="sourcePoint" />
            <mxPoint x="620" y="124" as="targetPoint" />
          </mxGeometry>
        </mxCell>
        <mxCell id="U-aAV0uO-yYcBymXb_cQ-8" style="rounded=0;orthogonalLoop=1;jettySize=auto;html=1;endArrow=none;endFill=0;strokeWidth=3;" parent="1" source="U-aAV0uO-yYcBymXb_cQ-3" target="U-aAV0uO-yYcBymXb_cQ-4" edge="1">
          <mxGeometry relative="1" as="geometry">
            <mxPoint x="424" y="151" as="sourcePoint" />
            <mxPoint x="374" y="195" as="targetPoint" />
          </mxGeometry>
        </mxCell>
        <mxCell id="U-aAV0uO-yYcBymXb_cQ-9" style="rounded=0;orthogonalLoop=1;jettySize=auto;html=1;endArrow=none;endFill=0;strokeWidth=3;" parent="1" source="U-aAV0uO-yYcBymXb_cQ-5" target="U-aAV0uO-yYcBymXb_cQ-3" edge="1">
          <mxGeometry relative="1" as="geometry">
            <mxPoint x="434" y="161" as="sourcePoint" />
            <mxPoint x="384" y="205" as="targetPoint" />
          </mxGeometry>
        </mxCell>
        <mxCell id="U-aAV0uO-yYcBymXb_cQ-10" value="" style="rounded=0;whiteSpace=wrap;html=1;" parent="1" vertex="1">
          <mxGeometry x="110" y="390" width="180" height="40" as="geometry" />
        </mxCell>
        <mxCell id="U-aAV0uO-yYcBymXb_cQ-11" value="" style="rounded=0;whiteSpace=wrap;html=1;" parent="1" vertex="1">
          <mxGeometry x="290" y="390" width="130" height="40" as="geometry" />
        </mxCell>
        <mxCell id="U-aAV0uO-yYcBymXb_cQ-12" value="" style="rounded=0;whiteSpace=wrap;html=1;" parent="1" vertex="1">
          <mxGeometry x="420" y="390" width="280" height="40" as="geometry" />
        </mxCell>
        <mxCell id="U-aAV0uO-yYcBymXb_cQ-13" value="" style="endArrow=none;dashed=1;html=1;rounded=0;exitX=0;exitY=0;exitDx=0;exitDy=0;entryX=0.5;entryY=1;entryDx=0;entryDy=0;" parent="1" source="U-aAV0uO-yYcBymXb_cQ-10" target="U-aAV0uO-yYcBymXb_cQ-4" edge="1">
          <mxGeometry width="50" height="50" relative="1" as="geometry">
            <mxPoint x="350" y="380" as="sourcePoint" />
            <mxPoint x="400" y="330" as="targetPoint" />
          </mxGeometry>
        </mxCell>
        <mxCell id="U-aAV0uO-yYcBymXb_cQ-14" value="" style="endArrow=none;dashed=1;html=1;rounded=0;exitX=0;exitY=0;exitDx=0;exitDy=0;entryX=0.5;entryY=1;entryDx=0;entryDy=0;" parent="1" source="U-aAV0uO-yYcBymXb_cQ-11" target="U-aAV0uO-yYcBymXb_cQ-4" edge="1">
          <mxGeometry width="50" height="50" relative="1" as="geometry">
            <mxPoint x="120" y="420" as="sourcePoint" />
            <mxPoint x="290" y="340" as="targetPoint" />
          </mxGeometry>
        </mxCell>
        <mxCell id="U-aAV0uO-yYcBymXb_cQ-15" value="" style="endArrow=none;dashed=1;html=1;rounded=0;exitX=1;exitY=0;exitDx=0;exitDy=0;entryX=0.5;entryY=1;entryDx=0;entryDy=0;" parent="1" source="U-aAV0uO-yYcBymXb_cQ-10" target="U-aAV0uO-yYcBymXb_cQ-5" edge="1">
          <mxGeometry width="50" height="50" relative="1" as="geometry">
            <mxPoint x="130" y="430" as="sourcePoint" />
            <mxPoint x="300" y="350" as="targetPoint" />
          </mxGeometry>
        </mxCell>
        <mxCell id="U-aAV0uO-yYcBymXb_cQ-16" value="" style="endArrow=none;dashed=1;html=1;rounded=0;exitX=1;exitY=0;exitDx=0;exitDy=0;entryX=0.5;entryY=1;entryDx=0;entryDy=0;" parent="1" source="U-aAV0uO-yYcBymXb_cQ-11" target="U-aAV0uO-yYcBymXb_cQ-5" edge="1">
          <mxGeometry width="50" height="50" relative="1" as="geometry">
            <mxPoint x="140" y="440" as="sourcePoint" />
            <mxPoint x="310" y="360" as="targetPoint" />
          </mxGeometry>
        </mxCell>
        <mxCell id="U-aAV0uO-yYcBymXb_cQ-17" value="" style="endArrow=none;dashed=1;html=1;rounded=0;exitX=0;exitY=0;exitDx=0;exitDy=0;entryX=0.5;entryY=1;entryDx=0;entryDy=0;" parent="1" source="U-aAV0uO-yYcBymXb_cQ-12" target="U-aAV0uO-yYcBymXb_cQ-2" edge="1">
          <mxGeometry width="50" height="50" relative="1" as="geometry">
            <mxPoint x="150" y="450" as="sourcePoint" />
            <mxPoint x="320" y="370" as="targetPoint" />
          </mxGeometry>
        </mxCell>
        <mxCell id="U-aAV0uO-yYcBymXb_cQ-18" value="" style="endArrow=none;dashed=1;html=1;rounded=0;exitX=1;exitY=0;exitDx=0;exitDy=0;entryX=0.5;entryY=1;entryDx=0;entryDy=0;" parent="1" source="U-aAV0uO-yYcBymXb_cQ-12" target="U-aAV0uO-yYcBymXb_cQ-2" edge="1">
          <mxGeometry width="50" height="50" relative="1" as="geometry">
            <mxPoint x="160" y="460" as="sourcePoint" />
            <mxPoint x="330" y="380" as="targetPoint" />
          </mxGeometry>
        </mxCell>
        <mxCell id="U-aAV0uO-yYcBymXb_cQ-20" value="&lt;font style=&quot;font-size: 19px;&quot;&gt;patch&lt;/font&gt;" style="rounded=0;whiteSpace=wrap;html=1;gradientColor=none;gradientDirection=north;fillStyle=auto;fillColor=#E6E6E6;strokeWidth=1;perimeterSpacing=0;glass=0;" parent="1" vertex="1">
          <mxGeometry x="370" y="470" width="180" height="30" as="geometry" />
        </mxCell>
        <mxCell id="U-aAV0uO-yYcBymXb_cQ-21" value="" style="rounded=0;whiteSpace=wrap;html=1;strokeColor=default;fillColor=#000000;fillStyle=hatch;strokeWidth=1;" parent="1" vertex="1">
          <mxGeometry x="370" y="390" width="180" height="40" as="geometry" />
        </mxCell>
        <mxCell id="U-aAV0uO-yYcBymXb_cQ-23" value="" style="endArrow=none;dashed=1;html=1;rounded=0;exitX=1;exitY=0;exitDx=0;exitDy=0;entryX=1;entryY=1;entryDx=0;entryDy=0;" parent="1" source="U-aAV0uO-yYcBymXb_cQ-20" target="U-aAV0uO-yYcBymXb_cQ-21" edge="1">
          <mxGeometry width="50" height="50" relative="1" as="geometry">
            <mxPoint x="630" y="560" as="sourcePoint" />
            <mxPoint x="600" y="480" as="targetPoint" />
          </mxGeometry>
        </mxCell>
        <mxCell id="U-aAV0uO-yYcBymXb_cQ-24" value="" style="endArrow=none;dashed=1;html=1;rounded=0;exitX=0;exitY=0;exitDx=0;exitDy=0;entryX=0;entryY=1;entryDx=0;entryDy=0;" parent="1" source="U-aAV0uO-yYcBymXb_cQ-20" target="U-aAV0uO-yYcBymXb_cQ-21" edge="1">
          <mxGeometry width="50" height="50" relative="1" as="geometry">
            <mxPoint x="440" y="410" as="sourcePoint" />
            <mxPoint x="410" y="330" as="targetPoint" />
          </mxGeometry>
        </mxCell>
      </root>
    </mxGraphModel>
  </diagram>
</mxfile>
